<svg aria-label="Repost" role="img" viewBox="0 0 24 24" style="--fill: currentColor; --height: 20px; --width: 20px;"><title>Repost</title><path d="M16.00092,6.00098c.13013,0,.2597-.02649,.3819-.07703,.24493-.10132,.43982-.29626,.54114-.54114,.10095-.24426,.10095-.51929,0-.76367-.0509-.12305-.12451-.23401-.21729-.32642L13.20697,.79297c-.39062-.39062-1.02344-.39062-1.41406,0s-.39062,1.02344,0,1.41406l1.79395,1.79395h-5.31543c-2.90625,0-5.27148,2.36426-5.27148,5.27051v4.22852c0,.55273,.44727,1,1,1s1-.44727,1-1v-4.22852c0-1.80371,1.46777-3.27051,3.27148-3.27051h7.72949Zm3.99707,3.49609c-.55273,0-1,.44727-1,1v4.22754c0,1.80371-1.4668,3.27051-3.27051,3.27051H7.99701c-.13007,0-.2597,.02649-.38184,.0769-.24487,.10132-.43982,.29626-.54114,.54126-.10107,.24426-.10107,.51953,0,.76379,.05084,.12292,.12439,.23389,.21716,.32629l3.50171,3.50366c.19531,.19531,.45117,.29297,.70703,.29297s.51172-.09766,.70703-.29297c.39062-.39062,.39062-1.02344,0-1.41406l-1.79688-1.79785h5.31738c2.90625,0,5.27051-2.36426,5.27051-5.27051v-4.22754c0-.55273-.44727-1-1-1Zm-5.20508-.51074l-3.90527,3.90625-1.68066-1.68066c-.39062-.39062-1.02344-.39062-1.41406,0s-.39062,1.02344,0,1.41406l2.3877,2.3877c.1875,.1875,.44141,.29297,.70703,.29297s.51953-.10547,.70703-.29297l4.6123-4.61328c.39062-.39062,.39062-1.02344,0-1.41406s-1.02344-.39062-1.41406,0Z"></path></svg>